<?xml version="1.0" encoding="iso-8859-1"?>
<!-- Generator: Adobe Illustrator 16.0.0, SVG Export Plug-In . SVG Version: 6.00 Build 0)  -->
<!DOCTYPE svg PUBLIC "-//W3C//DTD SVG 1.1//EN" "http://www.w3.org/Graphics/SVG/1.1/DTD/svg11.dtd">
<svg version="1.1" id="Layer_1" xmlns="http://www.w3.org/2000/svg" xmlns:xlink="http://www.w3.org/1999/xlink" x="0px" y="0px"
	 width="507.854px" height="583.945px" viewBox="0 0 507.854 583.945" style="enable-background:new 0 0 507.854 583.945;"
	 xml:space="preserve">
<path style="fill-rule:evenodd;clip-rule:evenodd;fill:#F4C400;" d="M470.233,330.084c0.81,0.047,1.491-0.051,2.018-0.338
	c3.617-1.97,6.803-12.347,7.725-15.957c19.302-76.281-8.192-169.955-63.897-225.115c-44.413-43.967-104.105-67.932-166.617-66.822
	l-0.544,0.015l-0.35,0.003c-41.807,0.737-93.217,14.317-126.624,40.161c-16.396,12.692-26.396,35.281-23.127,56.006
	c6.635,41.942,18.717,89.128,32.879,129.155c11.585,32.774,34.416,72.369,57.898,97.985c11.565,12.626,38.731,42.105,58.31,41.314
	c0.463,0,0.922-0.007,1.377-0.019c18.995-1.276,52.65-34.605,66.183-46.891c16.27-14.764,43.039-35.655,53.854-54.57
	c6.316-11.037,8.359-22.807,8.693-35.404c1.861-69.184-59.318-122.479-126.654-121.282l-0.693,0.015h-0.2
	c-14.97,0.257-28.168,4.208-42.069,9.31c-9.26,3.411-19.297,7.634-29.226,7.931c-5.078,0.022-10.125-1.023-15.018-3.773
	c-5.774-3.244-10.046-8.291-12.651-14.339c-1.715-3.97-2.523-8.291-2.31-12.59c1.263-25.623,34.896-36.591,55.349-42.24
	c13.207-3.64,31.163-7.725,45.003-8.099c103.89-1.72,189.523,80.997,191.371,184.907c0.261,14.836-0.777,29.146-3.509,43.72
	c-0.606,3.256-2.703,11.332-2.939,15.186c2.855,3.545,12.289,10.166,15.242,12.264C452.422,322.53,465.085,330.649,470.233,330.084
	 M34.789,175.317c-8.677,24.632-13.051,50.534-13.051,76.755c0,102.172,77.915,178.024,148.851,241.269
	c20.549,18.297,40.617,38.053,61.561,55.737c3.253,2.742,15.71,13.123,20.327,13.051c4.059-0.055,14.303-8.374,17.213-10.791
	c17.187-14.172,33.648-30.18,50.469-44.942c18.707-16.422,37.276-33.024,55.099-50.379c8.309-8.102,51.05-45.553,51.564-56.467
	c0.254-5.344-10.318-14.991-13.758-17.971c-1.466-1.27-8.643-7.1-10.783-7.042c-3.157,0.087-13.613,9.401-15.827,11.426
	c-16.138,14.813-31.384,31.09-47.355,46.213c-9.651,9.146-19.68,17.865-29.469,26.827c-15.094,13.838-35.227,35.666-57.049,35.694
	c-21.937,0.015-42.119-21.937-57.194-35.865c-14.642-13.508-29.291-27.041-43.26-41.238C97.915,362.444,64.6,303.532,44.322,229.073
	c-3.14-11.498-5.229-23.398-6.986-35.172C36.403,187.707,35.594,181.51,34.789,175.317z M156.44,509.218
	C75.813,437.339,0.465,359.244,0.465,252.072c0-35.332,7.26-68.966,20.382-99.49c35.263-82.104,28.699,14.833,43.989,70.9
	c18,66.041,47.102,122.885,102.457,179.203c13.526,13.759,28.066,27.162,42.523,40.524c43.756,40.419,41.743,40.129,85.445,0.105
	c9.702-8.871,19.669-17.535,29.204-26.566c59.896-56.764,70.569-80.902,102.494-51.274c45.927,36.874,12.119,58.02-36.848,105.753
	c-17.96,17.506-36.856,34.414-55.927,51.151C239.215,605.708,264.943,605.933,156.44,509.218z M329.755,355.329
	c-64.067,58.153-86.29,79.129-154.945,4.205c-24.982-27.255-50.505-69.576-62.277-105.263
	c-14.112-37.36-29.875-92.93-33.824-132.928c-6.224-28.442,8.826-58.897,31.114-76.146c36.941-28.583,92.576-43.778,139.263-44.613
	c70.8-1.255,135.315,26.798,181.959,72.975c60.983,60.4,90.731,161.78,69.546,245.44c-7.387,29.189-24.425,44.479-62.261,18.965
	c-41.188-30.357-16.668-24.399-17.793-88.159c-1.644-92.249-77.702-165.641-169.949-164.011
	c-17.996,0.33-87.278,15.413-79.568,33.234c7.199,16.661,34.868-11.164,79.951-11.962c80.508-1.434,150.468,62.624,148.302,143.131
	C397.93,300.176,372.786,316.278,329.755,355.329z"/>
</svg>
